<?xml version="1.0" standalone="no"?>
<!DOCTYPE svg PUBLIC "-//W3C//DTD SVG 20010904//EN"
 "http://www.w3.org/TR/2001/REC-SVG-20010904/DTD/svg10.dtd">
<svg version="1.0" xmlns="http://www.w3.org/2000/svg"
 width="689.000000pt" height="689.000000pt" viewBox="0 0 689.000000 689.000000"
 preserveAspectRatio="xMidYMid meet">
<metadata>
Created by potrace 1.11, written by Peter Selinger 2001-2013
</metadata>
<g transform="translate(0.000000,689.000000) scale(0.100000,-0.100000)"
fill="#000000" stroke="none">
<path d="M3368 6825 c-2 -1 -57 -5 -123 -8 -141 -8 -310 -29 -450 -57 -55 -11
-110 -22 -121 -24 -121 -23 -421 -124 -587 -197 -748 -329 -1345 -910 -1696
-1651 -92 -194 -214 -539 -237 -672 -3 -17 -11 -58 -19 -91 -15 -68 -20 -98
-40 -240 -48 -347 -35 -744 36 -1096 11 -57 23 -113 25 -123 12 -64 83 -291
126 -406 55 -150 180 -411 256 -537 l49 -82 -28 -27 -29 -28 0 -265 0 -266
263 -263 262 -262 338 0 338 0 132 -70 c255 -133 619 -271 817 -306 14 -3 52
-11 86 -19 169 -39 473 -69 689 -69 183 1 475 28 620 58 296 62 551 144 784
252 51 24 97 44 101 44 5 0 10 3 12 8 2 4 23 17 48 29 160 79 438 262 571 377
195 169 327 299 444 441 28 33 53 62 56 65 17 15 186 258 233 335 126 206 242
455 321 688 42 124 98 329 110 400 3 18 12 68 20 112 44 242 59 557 41 816 -8
112 -41 348 -61 433 -8 34 -16 75 -19 91 -3 17 -23 91 -45 165 -177 603 -511
1143 -962 1555 -100 91 -126 113 -236 196 -143 109 -441 299 -468 299 -4 0
-19 8 -33 18 -37 25 -234 113 -366 162 -116 44 -358 117 -416 126 -19 3 -38 8
-41 10 -3 2 -21 6 -40 9 -19 3 -70 12 -114 20 -168 30 -306 43 -537 49 -59 2
-109 2 -110 1z"/>
</g>
</svg>
